<svg width="20" height="26" viewBox="0 0 20 26" fill="none" xmlns="http://www.w3.org/2000/svg">
<path d="M16.5701 7.12003C16.5701 4.25003 13.5201 3.58004 11.5701 3.45004V1.52002C11.5701 0.84002 11.0201 0.290039 10.3401 0.290039H9.65002C8.97002 0.290039 8.42004 0.84002 8.42004 1.52002V3.45004C6.47004 3.59004 3.42004 4.25003 3.42004 7.12003C3.42004 11.33 2.89 16.07 0 19.23V21.07H10H20V19.23C17.1 16.07 16.5701 11.33 16.5701 7.12003Z" fill="#333333"/>
<path d="M12.75 22.51C12.75 24.04 11.51 25.27 9.98999 25.27C8.45999 25.27 7.22998 24.03 7.22998 22.51" fill="#333333"/>
</svg>
