<svg width="425" height="198" viewBox="0 0 425 198" fill="none" xmlns="http://www.w3.org/2000/svg">
<path d="M44.12 97.68C55.76 97.68 65.72 93.24 73.28 84.48L62 71.04C57.8 75.6 52.16 79.2 44.96 79.2C32.36 79.2 24.2 68.88 24.2 51.12C24.2 33.72 33.68 23.4 45.2 23.4C51.56 23.4 56.24 26.28 60.8 30.36L71.96 16.68C65.84 10.44 56.48 5.04 44.84 5.04C22.16 5.04 2.24 22.08 2.24 51.84C2.24 82.08 21.44 97.68 44.12 97.68ZM102.319 97.68C119.599 97.68 135.679 84.48 135.679 61.8C135.679 39.24 119.599 26.04 102.319 26.04C84.9191 26.04 68.8391 39.24 68.8391 61.8C68.8391 84.48 84.9191 97.68 102.319 97.68ZM102.319 80.4C94.2791 80.4 90.6791 73.2 90.6791 61.8C90.6791 50.52 94.2791 43.32 102.319 43.32C110.239 43.32 113.839 50.52 113.839 61.8C113.839 73.2 110.239 80.4 102.319 80.4ZM156.525 97.68C161.325 97.68 164.805 96.84 167.085 95.88L164.565 80.16C163.365 80.4 162.885 80.4 162.165 80.4C160.485 80.4 158.445 79.08 158.445 74.52V0.119997H137.085V73.8C137.085 88.08 141.885 97.68 156.525 97.68ZM184.369 97.68C189.169 97.68 192.649 96.84 194.929 95.88L192.409 80.16C191.209 80.4 190.729 80.4 190.009 80.4C188.329 80.4 186.289 79.08 186.289 74.52V0.119997H164.929V73.8C164.929 88.08 169.729 97.68 184.369 97.68ZM223.733 97.68C231.653 97.68 241.013 94.92 248.093 89.88L241.013 77.04C236.093 79.92 231.533 81.36 226.613 81.36C217.973 81.36 211.493 77.52 209.573 68.16H249.653C250.133 66.48 250.613 62.76 250.613 58.92C250.613 40.32 241.013 26.04 221.333 26.04C204.893 26.04 188.933 39.72 188.933 61.8C188.933 84.48 204.053 97.68 223.733 97.68ZM209.213 54.12C210.653 46.08 215.813 42.36 221.693 42.36C229.493 42.36 232.493 47.4 232.493 54.12H209.213ZM282.377 97.68C289.577 97.68 298.217 95.52 304.937 89.64L296.657 75.6C293.177 78.36 289.097 80.4 284.777 80.4C276.497 80.4 270.257 73.2 270.257 61.8C270.257 50.52 276.137 43.32 285.617 43.32C288.497 43.32 291.137 44.4 294.257 46.92L304.217 33.36C299.057 28.92 292.577 26.04 284.297 26.04C265.217 26.04 248.417 39.24 248.417 61.8C248.417 84.48 263.177 97.68 282.377 97.68ZM329.364 97.68C336.324 97.68 341.244 96.24 344.844 95.16L341.484 79.68C339.804 80.28 337.404 81 335.244 81C330.204 81 326.604 78 326.604 70.44V44.4H342.684V27.72H326.604V9.6H308.964L306.564 27.72L296.004 28.56V44.4H305.244V70.68C305.244 86.76 312.204 97.68 329.364 97.68ZM353.706 97.68C361.026 97.68 366.426 91.8 366.426 84.36C366.426 76.92 361.026 71.16 353.706 71.16C346.266 71.16 340.986 76.92 340.986 84.36C340.986 91.8 346.266 97.68 353.706 97.68ZM34.76 197.68C41.96 197.68 50.6 195.52 57.32 189.64L49.04 175.6C45.56 178.36 41.48 180.4 37.16 180.4C28.88 180.4 22.64 173.2 22.64 161.8C22.64 150.52 28.52 143.32 38 143.32C40.88 143.32 43.52 144.4 46.64 146.92L56.6 133.36C51.44 128.92 44.96 126.04 36.68 126.04C17.6 126.04 0.8 139.24 0.8 161.8C0.8 184.48 15.56 197.68 34.76 197.68ZM81.9284 197.68C99.2084 197.68 115.288 184.48 115.288 161.8C115.288 139.24 99.2084 126.04 81.9284 126.04C64.5284 126.04 48.4484 139.24 48.4484 161.8C48.4484 184.48 64.5284 197.68 81.9284 197.68ZM81.9284 180.4C73.8884 180.4 70.2884 173.2 70.2884 161.8C70.2884 150.52 73.8884 143.32 81.9284 143.32C89.8484 143.32 93.4484 150.52 93.4484 161.8C93.4484 173.2 89.8484 180.4 81.9284 180.4ZM116.695 196H138.055V150.4C142.135 146.44 145.015 144.28 149.815 144.28C155.215 144.28 157.735 146.92 157.735 156.4V196H179.095V153.76C179.095 136.72 172.735 126.04 157.855 126.04C148.615 126.04 141.655 130.72 136.015 136.24H135.655L134.095 127.72H116.695V196ZM183.679 196H205.039V150.4C209.119 146.44 211.999 144.28 216.799 144.28C222.199 144.28 224.719 146.92 224.719 156.4V196H246.079V153.76C246.079 136.72 239.719 126.04 224.839 126.04C215.599 126.04 208.639 130.72 202.999 136.24H202.639L201.079 127.72H183.679V196ZM281.623 197.68C289.543 197.68 298.903 194.92 305.983 189.88L298.903 177.04C293.983 179.92 289.423 181.36 284.503 181.36C275.863 181.36 269.383 177.52 267.463 168.16H307.543C308.023 166.48 308.503 162.76 308.503 158.92C308.503 140.32 298.903 126.04 279.223 126.04C262.783 126.04 246.823 139.72 246.823 161.8C246.823 184.48 261.943 197.68 281.623 197.68ZM267.103 154.12C268.543 146.08 273.703 142.36 279.583 142.36C287.383 142.36 290.383 147.4 290.383 154.12H267.103ZM340.268 197.68C347.468 197.68 356.108 195.52 362.828 189.64L354.548 175.6C351.068 178.36 346.988 180.4 342.668 180.4C334.388 180.4 328.148 173.2 328.148 161.8C328.148 150.52 334.028 143.32 343.508 143.32C346.388 143.32 349.028 144.4 352.148 146.92L362.108 133.36C356.948 128.92 350.468 126.04 342.188 126.04C323.108 126.04 306.308 139.24 306.308 161.8C306.308 184.48 321.068 197.68 340.268 197.68ZM387.254 197.68C394.214 197.68 399.134 196.24 402.734 195.16L399.374 179.68C397.694 180.28 395.294 181 393.134 181C388.094 181 384.494 178 384.494 170.44V144.4H400.574V127.72H384.494V109.6H366.854L364.454 127.72L353.894 128.56V144.4H363.134V170.68C363.134 186.76 370.094 197.68 387.254 197.68ZM411.597 197.68C418.917 197.68 424.317 191.8 424.317 184.36C424.317 176.92 418.917 171.16 411.597 171.16C404.157 171.16 398.877 176.92 398.877 184.36C398.877 191.8 404.157 197.68 411.597 197.68Z" fill="black"/>
</svg>
